# xmcd
#
# Track frame offsets:
#	150
#	31088
#	44351
#	73076
#	91001
#	107051
#	120168
#	152762
#	180881
#	199317
#	227960
#	254446
#	265910
#	296716
#
# Disc length: 4259 seconds
#
# Revision: 0
# Processed by: cddbd v1.5.2PL0 Copyright (c) Steve Scherf et al.
# Submitted via: SynApp - FreeCDDB Version: 2.5
#
DISCID=bb10a10e
DTITLE=Various Artist - Champagne Lounge [CD2]
DYEAR=2004
DGENRE=Club
TTITLE0=Milt Jackson/Joe Pass/Ray Brown - Wave
TTITLE1=Ray Baretto - Summertime
TTITLE2=Joe Pass and Paulinho Da Costa - Corcovado
TTITLE3=Chico Buarque - Kalu
TTITLE4=Miucha canta Vinicius  Vinicius - Tomara Com Bebelgilberto 
TTITLE5=Sarah Vaughan - Triste
TTITLE6=Liuz Bonfá - Subtle Samba
TTITLE7=Cal Tjader and Charlie Byrd - Tambu (Tombo In 7/4)
TTITLE8=Dom Um Romao - Escravos De Jó
TTITLE9=Adela Dalto - Guajiro Mio
TTITLE10=Paulinho Da Costa - Toledo Bagel
TTITLE11=Gary Mcfarland With Antonio Carlos Jobim - Dreamer
TTITLE12=Ella Fitzgerald  - One Note Samba
TTITLE13=Milt Jackson/Joe Pass/Ray Brown - Blue Bossa
EXTD=
EXTT0=
EXTT1=
EXTT2=
EXTT3=
EXTT4=
EXTT5=
EXTT6=
EXTT7=
EXTT8=
EXTT9=
EXTT10=
EXTT11=
EXTT12=
EXTT13=
PLAYORDER=
